<?xml version="1.0" encoding="UTF-8"?>
<svg xmlns="http://www.w3.org/2000/svg" viewBox="0 0 420 133.61" fill="none" role="img" aria-label="GEP">
  <path d="m25.72,27.08s-5.85,4.35-12.42,18.02c0,0-6.06,13.89-4.08,25.92,0,0,3.55,26.66,30.53,32.27,0,0,20.99,4.87,34.78-5.82,0,0,13.53-8.46,17.13-26.17,0,0,2.98-12.07-3.59-23.03-2.36-3.95-5.93-7.32-10.18-9.15-4.31-1.85-9.81-2.29-13.18,1.49-2.15,2.4-2.46,7.27.55,9.16.35.22.74.43,1.13.59,0,0-4.49-4.02-.18-8.09,1.13-1.06,3.16-1.43,4.62-1.4,4.04.08,8.04,3.21,9.41,6.92,2.29,6.17,2.6,13.18-.45,19.15-2.45,4.77-6.56,7.97-11.35,10.16,0,0-13.77,8.2-31.59-1.46,0,0-13.27-6.04-16.5-24.31,0,0-1.9-11.83,5.37-24.24" fill="#056cab"/>
  <path d="m66.6,46.22c1-.9,2.19-1.35,3.5-1.18,1.55.2,3.37,1.5,3.71,3.08.16.74.09,1.51-.03,2.26-.93,5.54-6.34,9.24-11.81,8.15-1.03-.21-2.04-.54-3.01-.96-12.23-5.28-9.5-22.55-3.21-31.33,2.21-3.09,4.85-4.89,8.07-6.81,0,0,9.37-5.57,28.77-1.46-1.09-.23-2.46-1.42-3.48-1.91-3.28-1.56-6.76-2.71-10.29-3.54-10.67-2.5-22.46-2.32-32.82,1.42-3.24,1.17-6.34,2.74-9.13,4.78-4.89,3.57-8.68,11.4-9.07,17.42,0,.02,0,.04,0,.05-5.38,36.56,42.94,44.59,49.85,21.09,3.59-12.19-9.66-18.1-11.79-10.34l.76-.73" fill="#056cab"/>
  <path d="m24.87,106.31s18.89,11.6,44.15,5.04c0,0,13.45-2.68,23.7-16.21,0,0,10.85-13.04,9.13-32.17,0,0-1.14-17.29-14.14-25.59,0,0-9.87-6.54-21.91-1.25,0,0-8.34,4.12-3.47,12.71,0,0,1.94,3.34,4.65,3.41,0,0-5.48,1.16-8.47-6.18,0,0-3.45-9.55,3.86-17.28,0,0,9.43-11.53,29.55-5.69,17.96,5.22,29.11,23.04,29.11,41.34,0,0,1.5,12.58-5.75,27.47,0,0-4.49,10.07-14.96,18.65,0,0-8.66,8.05-24.21,11.42,0,0-13.5,4.4-33.12-3.34,0,0-11.85-4.77-18.1-12.33" fill="#056cab"/>
  <path d="m191.21,63.01v20.11h29.49c-5.71,10.34-16.72,17.35-29.37,17.35-18.52,0-33.53-15.02-33.53-33.53s15.01-33.53,33.53-33.53c11.88,0,22.32,6.18,28.28,15.5h28.16c-7.55-22.19-31.59-38.16-56.44-38.16-31.19,0-56.47,25.16-56.47,56.19s25.28,56.2,56.47,56.2,56.47-25.16,56.47-56.2c0-1.32-.05-2.62-.14-3.92h-56.45Z" fill="#231f20"/>
  <polygon points="285.27 78.52 285.27 102.35 343.1 102.35 343.1 123.03 261.44 123.03 261.44 10.81 343.1 10.81 343.1 29.87 285.27 29.87 285.27 56.73 336.37 56.73 336.37 78.52 285.27 78.52" fill="#231f20"/>
  <path d="m381.46,62.99l19.57.04c11.34,0,21.38-1.98,21.38-16.31s-10.39-16.85-21.74-16.85h-19.22v33.12Zm-24.73-52.34h50.72c28.19,0,38.9,17.8,38.9,36.07s-10.71,36.52-38.9,36.52h-25.99v39.87h-24.73V10.65Z" fill="#231f20"/>
</svg>
